<svg width="30" height="32" viewBox="0 0 30 32" fill="none" xmlns="http://www.w3.org/2000/svg">
<path fill-rule="evenodd" clip-rule="evenodd" d="M14.5144 3.43932C7.87904 3.43932 2.5 8.85363 2.5 15.5325C2.5 22.2114 7.87904 27.6257 14.5144 27.6257C17.3523 27.6257 19.9604 26.6353 22.0162 24.9792L25.9212 28.8996L26.0251 28.9897C26.3877 29.2597 26.9017 29.229 27.2297 28.8979C27.5906 28.5337 27.5898 27.944 27.228 27.5808L23.3689 23.7065C25.3312 21.5541 26.5289 18.6841 26.5289 15.5325C26.5289 8.85363 21.1498 3.43932 14.5144 3.43932ZM14.5144 5.302C20.1278 5.302 24.6783 9.88236 24.6783 15.5325C24.6783 21.1827 20.1278 25.763 14.5144 25.763C8.90108 25.763 4.35055 21.1827 4.35055 15.5325C4.35055 9.88236 8.90108 5.302 14.5144 5.302Z" fill="#333333"/>
</svg>
